<svg width="308" height="169" viewBox="0 0 308 169" fill="none" xmlns="http://www.w3.org/2000/svg">
<rect x="-2.13283" y="2.13283" width="121.734" height="40.7343" rx="20.3672" transform="matrix(-1 0 0 1 300.734 0)" stroke="#E60F8D" stroke-width="4.26565"/>
<rect x="-2.13283" y="2.13283" width="121.734" height="40.7343" rx="20.3672" transform="matrix(-1 0 0 1 241.734 42)" stroke="#E60F8D" stroke-width="4.26565"/>
<rect x="-2.13283" y="2.13283" width="121.734" height="40.7343" rx="20.3672" transform="matrix(-1 0 0 1 303.734 82)" stroke="#E60F8D" stroke-width="4.26565"/>
<rect x="-2.13283" y="2.13283" width="121.734" height="40.7343" rx="20.3672" transform="matrix(-1 0 0 1 121.734 42)" stroke="#E60F8D" stroke-width="4.26565"/>
<rect x="-2.13283" y="2.13283" width="121.734" height="40.7343" rx="20.3672" transform="matrix(-1 0 0 1 182.734 82)" stroke="#E60F8D" stroke-width="4.26565"/>
<rect x="-2.13283" y="2.13283" width="121.734" height="40.7343" rx="20.3672" transform="matrix(-1 0 0 1 244.734 124)" stroke="#E60F8D" stroke-width="4.26565"/>
</svg>
