<svg width="423" height="36" viewBox="0 0 423 36" fill="none" xmlns="http://www.w3.org/2000/svg">
<path fill-rule="evenodd" clip-rule="evenodd" d="M253.152 16.4426C196.859 17.082 140.537 19.6185 84.4884 24.1525C57.8411 26.3085 26.8957 26.039 1.05116 33.3894C-0.236605 33.7593 0.00864519 34.869 0.0365189 34.98C0.0922664 35.2072 0.326466 35.9628 1.35222 35.9998C1.46371 36.0051 2.2497 35.8994 2.55073 35.8624C10.1826 34.9112 17.7865 33.8016 25.4239 32.9033C51.7925 29.7908 78.2391 27.4393 104.725 25.3785C139.879 22.6412 175.334 21.1827 210.584 20.0413C229.878 19.4177 249.635 20.2473 268.99 18.958C276.098 18.921 283.206 18.9158 290.314 18.9369C320.027 19.0373 349.707 20.1048 379.37 21.5685C388.909 22.0388 396.184 22.5461 405.521 22.8896C409.067 23.0217 414.692 23.1115 418.605 23.1697C419.179 23.1802 420.645 23.1907 421.253 23.196C421.314 23.2066 421.376 23.2066 421.443 23.2066C421.677 23.2066 421.788 23.1907 421.811 23.1907C423.137 23.0057 423.015 21.8168 422.981 21.6371C422.976 21.6002 422.775 20.5961 421.632 20.5591C421.359 20.5486 419.402 20.5381 418.65 20.5275C414.759 20.4694 409.156 20.3795 405.627 20.2527C396.306 19.9092 389.037 19.402 379.515 18.9317C349.807 17.4679 320.083 16.3952 290.325 16.2948C286.69 16.2842 283.05 16.2789 279.415 16.2842C279.292 15.983 279.019 15.6448 278.417 15.4969C277.854 15.3595 273.823 15.2379 272.268 15.1164C260.756 14.2181 261.096 14.2603 248.43 13.5258C229.248 12.4108 226.327 12.1571 206.375 11.6868C170.133 10.8307 133.875 10.8995 97.628 10.9841C79.7331 11.0316 60.5727 12.1783 42.4046 10.0381C48.3919 9.37233 54.4015 8.88618 60.3999 8.33133C80.8815 6.43956 101.38 5.26639 121.945 4.44204C171.276 2.46571 220.685 1.67841 269.999 4.3734C259.502 4.46852 249.01 4.69039 238.513 4.83307C195.783 5.42491 152.64 4.98108 109.998 8.05125C109.235 8.10938 108.66 8.74346 108.716 9.4674C108.772 10.1966 109.446 10.7409 110.21 10.6881C152.796 7.61793 195.877 8.06706 238.552 7.47521C254.407 7.25856 270.256 6.86756 286.11 6.98381C291.551 7.02609 296.992 7.21635 302.433 7.27976C303.509 7.29562 306.28 7.49642 306.675 7.41187C307.551 7.22692 307.74 6.6139 307.796 6.3127C307.824 6.13303 307.913 5.09731 306.575 4.72741C297.444 2.20152 280.591 2.31777 271.716 1.82105C221.794 -0.979625 171.772 -0.197571 121.828 1.79989C101.213 2.62953 80.6641 3.80799 60.1267 5.70505C52.952 6.36559 45.7606 6.93629 38.6138 7.81348C37.4598 7.95616 34.8676 8.16228 33.6133 8.37894C33.0892 8.46877 32.7101 8.59551 32.5429 8.68534C31.8906 9.0341 31.7736 9.5414 31.7736 9.88488C31.768 10.1491 31.8851 11.0791 33.2509 11.3328C54.0614 15.1956 76.706 13.679 97.6336 13.6262C133.858 13.5417 170.089 13.4729 206.308 14.3289C226.21 14.7992 229.12 15.0477 248.263 16.1627C250.153 16.2684 251.753 16.3634 253.152 16.4426Z" fill="#E50F8D"/>
</svg>
