<svg width="120" height="133" viewBox="0 0 120 133" fill="none" xmlns="http://www.w3.org/2000/svg">
<path fill-rule="evenodd" clip-rule="evenodd" d="M70.1239 77.0988C72.0919 76.7774 74.0425 76.2237 75.9684 75.4112C82.7272 72.5611 86.0395 63.8529 85.8236 55.1429C85.6081 46.4363 81.8671 37.9072 75.2425 35.3938C71.4548 33.9559 68.402 34.1354 65.9818 35.3153C63.5747 36.4898 61.7628 38.6944 60.5142 41.5059C57.0374 49.3441 57.9811 62.0214 60.7357 67.4579C62.0112 69.972 63.4578 72.3983 65.0474 74.7342C56.8868 74.4811 48.5588 70.2428 40.7076 64.0993C23.6436 50.7478 8.85134 28.2839 2.77521 15.7547C2.44878 15.0815 1.63549 14.8023 0.957695 15.128C0.27989 15.4537 -0.00595873 16.2631 0.320466 16.9363C6.51704 29.7134 21.6174 52.6116 39.0197 66.2269C48.0084 73.261 57.6213 77.7945 66.9602 77.4192C79.6839 94.4548 100.022 106.969 117.168 117.704C117.801 118.103 118.645 117.911 119.048 117.278C119.447 116.645 119.259 115.809 118.623 115.41C102.178 105.113 82.6701 93.2249 70.1239 77.0988ZM68.2769 74.6218C70.5088 74.3922 72.7273 73.8398 74.9112 72.9162C80.7612 70.4506 83.2894 62.754 83.1022 55.2141C82.9858 50.5927 81.8268 45.9957 79.6349 42.5822C78.2578 40.4356 76.4755 38.7639 74.265 37.9264C71.3653 36.8257 69.0287 36.8429 67.1791 37.7477C65.3159 38.6545 63.9732 40.4163 63.009 42.5947C59.8385 49.7378 60.6623 61.286 63.1701 66.2343C64.6486 69.1533 66.3652 71.9436 68.2769 74.6218Z" fill="white"/>
</svg>
