<svg width="184" height="101" viewBox="0 0 184 101" fill="none" xmlns="http://www.w3.org/2000/svg">
<rect x="-1.27416" y="1.27416" width="72.4517" height="24.4517" rx="12.2258" transform="matrix(-1 0 0 1 179.452 0)" stroke="#0F58E5" stroke-width="2.54831"/>
<rect x="-1.27416" y="1.27416" width="72.4517" height="24.4517" rx="12.2258" transform="matrix(-1 0 0 1 144.452 25)" stroke="#0F58E5" stroke-width="2.54831"/>
<rect x="-1.27416" y="1.27416" width="72.4517" height="24.4517" rx="12.2258" transform="matrix(-1 0 0 1 181.452 49)" stroke="#0F58E5" stroke-width="2.54831"/>
<rect x="-1.27416" y="1.27416" width="72.4517" height="24.4517" rx="12.2258" transform="matrix(-1 0 0 1 72.4517 25)" stroke="#0F58E5" stroke-width="2.54831"/>
<rect x="-1.27416" y="1.27416" width="72.4517" height="24.4517" rx="12.2258" transform="matrix(-1 0 0 1 109.452 49)" stroke="#0F58E5" stroke-width="2.54831"/>
<rect x="-1.27416" y="1.27416" width="72.4517" height="24.4517" rx="12.2258" transform="matrix(-1 0 0 1 146.452 74)" stroke="#0F58E5" stroke-width="2.54831"/>
</svg>
